<?xml version="1.0" encoding="utf-8"?>
<!-- Generator: Adobe Illustrator 16.0.0, SVG Export Plug-In . SVG Version: 6.00 Build 0)  -->
<!DOCTYPE svg PUBLIC "-//W3C//DTD SVG 1.1//EN" "http://www.w3.org/Graphics/SVG/1.1/DTD/svg11.dtd">
<svg version="1.1" id="Capa_1" xmlns="http://www.w3.org/2000/svg" xmlns:xlink="http://www.w3.org/1999/xlink" x="0px" y="0px"
	 width="512px" height="512px" viewBox="0 0 512 512" enable-background="new 0 0 512 512" xml:space="preserve">
<linearGradient id="SVGID_1_" gradientUnits="userSpaceOnUse" x1="265" y1="-117" x2="777" y2="-117" gradientTransform="matrix(1 0 0 -1 -265 128.5)">
	<stop  offset="0" style="stop-color:#50F9C4"/>
	<stop  offset="1" style="stop-color:#DCFFF3"/>
</linearGradient>
<path fill="url(#SVGID_1_)" d="M123.027,423.164c42.762-28.898,100.645-98.691,100.645-186.238
	c0-61.668-50.168-111.836-111.836-111.836S0,175.258,0,236.926c0,78.117,48.996,151.335,100.645,186.238
	C107.406,427.73,116.262,427.727,123.027,423.164z M40,236.926c0-39.609,32.227-71.836,71.836-71.836s71.836,32.227,71.836,71.836
	c0,56.91-29.582,108.015-71.855,144.253C89.148,361.762,40,311.098,40,236.926z M389.441,245.903h-18.777
	c-45.523,0-82.559-37.031-82.559-82.551c0-45.516,37.035-82.547,82.559-82.547h23.113c8.293,23.73,30.891,40.805,57.414,40.805
	c33.531,0,60.809-27.277,60.809-60.805S484.723,0,451.191,0c-26.523,0-49.121,17.074-57.414,40.805h-23.113
	c-67.578,0-122.559,54.977-122.559,122.551c0,67.57,54.977,122.546,122.559,122.546h18.777c45.523,0,82.559,37.031,82.559,82.551
	C472,413.969,434.965,451,389.441,451H111.836c-11.047,0-20,8.953-20,20s8.953,20,20,20h277.605C457.02,491,512,436.023,512,368.453
	C512,300.879,457.02,245.903,389.441,245.903z M451.191,40C462.664,40,472,49.333,472,60.805s-9.336,20.805-20.809,20.805
	s-20.809-9.332-20.809-20.805S439.719,40,451.191,40z"/>
</svg>
